# xmcd CD database file
#
# Track frame offsets:
#	150
#	25040
#	37057
#	57685
#	68677
#	78950
#	102067
#	120975
#	135667
#	150292
#
# Disc length: 2289 seconds
#
# Revision: 0
# Processed by: cddbd v1.5.1PL0 Copyright (c) Steve Scherf et al.
# Submitted via: CDex 1.51
#
DISCID=7408ef0a
DTITLE=The Rhythmen Blues - The Rhythmen Blues
DYEAR=1997
DGENRE=Blues
TTITLE0=Rockin'at Midnigt
TTITLE1=That's Life
TTITLE2=Just a Gigolo
TTITLE3=TD's Boogie
TTITLE4=I'm Easy
TTITLE5=Be-Bop-A-Lula
TTITLE6=I Can't Stop Loving You
TTITLE7=Night Train
TTITLE8=You're Sixteen
TTITLE9=Sweet Home Chicago
EXTD=YEAR: 1997
EXTT0=
EXTT1=
EXTT2=
EXTT3=
EXTT4=
EXTT5=
EXTT6=
EXTT7=
EXTT8=
EXTT9=
PLAYORDER=
